<?xml version="1.0" encoding="UTF-8" standalone="no"?>
<!DOCTYPE svg PUBLIC "-//W3C//DTD SVG 1.1//EN"
    "http://www.w3.org/Graphics/SVG/1.1/DTD/svg11.dtd">
<svg  version="1.1"
    baseProfile="full"
    xmlns="http://www.w3.org/2000/svg"
    xmlns:xlink="http://www.w3.org/1999/xlink"
    xmlns:ev="http://www.w3.org/2001/xml-events"
	width="1000" height="800">
	
	<defs>
      <linearGradient id="Gradient-3">
        <stop class="gradent-3-stop1" offset="0%"/>
        <stop class="gradent-3-stop2" offset="50%"/>
        <stop class="gradent-3-stop3" offset="100%"/>
      </linearGradient>
      <style type="text/css"><![CDATA[
        .gradent-3-stop1 { stop-color: black; stop-opacity: 0.5; }
        .gradent-3-stop2 { stop-color: black; stop-opacity: 0; }
        .gradent-3-stop3 { stop-color: black; stop-opacity: 0.5; }
		
		#Pipe1 {fill: #00ffff;}
		#Pipe2 {fill: #00ffff;}
		#Pipe3 {fill: #0000ff;}
		#Pipe4 {fill: #00ffff;}
        #Pipe-end1 {fill: #00ffff;}
        #Pipe-end2 {fill: #000fff;}
        #Pipe-curve1 {fill: #00ffff;}
        #Pipe-curve2 {fill: #00ffff;}
        
        
      ]]></style>
	</defs>
	
    <g transform="translate(600, 300) rotate(90)">
        <g id="Pipe-curve2" transform="translate(250,300)">
            <polygon points="50,50 0,0 50,0"/>
            <polygon points="50,50 0,0 50,0" fill="url(#Gradient-3)"/>     
        </g>
        <g id="Pipe-curve1" transform="translate(300, 300) rotate(90)">
            <polygon points="0,50 50,0 50,50"/>
            <polygon points="0,50 50,0 50,50" fill="url(#Gradient-3)"/>     
        </g>	
    </g>

    <g transform="translate(600, 50) rotate(90)">
        <g id="Pipe-curve2" transform="translate(250,300)">
            <polygon points="0,50 0,0 50,0"/>
            <polygon points="0,50 0,0 50,0" fill="url(#Gradient-3)"/>     
        </g>
        <g id="Pipe-curve1" transform="translate(300, 300) rotate(90)">
            <polygon points="50,0 0,0 50,50"/>
            <polygon points="50,0 0,0 50,50" fill="url(#Gradient-3)"/>     
        </g>	
    </g>
    <g id="Pipe1" class="mc mc-pipe" transform="translate(500, 100)">
        <rect x="0" y="0" width="50" height="200" />
        <rect x="0" y="0" width="50" height="200" fill="url(#Gradient-3)"/>
    </g>

    <g id="Pipe1" class="mc mc-pipe" transform="translate(500, 100)">
        <rect x="0" y="0" width="50" height="200" />
        <rect x="0" y="0" width="50" height="200" fill="url(#Gradient-3)"/>
    </g>
    <g id="Pipe2" class="mc mc-pipe" transform="translate(500, 300) rotate(90)">
        <rect x="0" y="0" width="50" height="200"/>
        <rect x="0" y="0" width="50" height="200" fill="url(#Gradient-3)"/>
    </g>

    <g>
        <g id="Pipe-curve1" transform="translate(500, 300)">
            <polygon points="0,0 50,0 50,50"/>
            <polygon points="0,0 50,0 50,50" fill="url(#Gradient-3)"/>     
        </g>
        <g id="Pipe-curve1" transform="translate(550, 300) rotate(90)">
            <polygon points="50,0 0,50 50,50"/>
            <polygon points="50,0 0,50 50,50" fill="url(#Gradient-3)"/>     
        </g>	
    </g>

    <g id="Pipe2" class="mc mc-pipe" transform="translate(600, 50) rotate(90)">
        <rect x="0" y="0" width="50" height="200"/>
        <rect x="0" y="0" width="50" height="200" fill="url(#Gradient-3)"/>
    </g>

    <g id="Pipe-end1" transform="translate(500, 100)">
        <ellipse cx="25" cy="0" rx="25" ry="12.5"/>
        <ellipse cx="25" cy="0" rx="25" ry="12.5" fill="url(#Gradient-3)"/>
    </g>

    <g id="Pipe1" class="mc mc-pipe" transform="translate(250, 350)">
        <rect x="0" y="0" width="50" height="200" />
        <rect x="0" y="0" width="50" height="200" fill="url(#Gradient-3)"/>
    </g> 
    
    <g id="Pipe2" class="mc mc-pipe" transform="translate(500, 550) rotate(90)">
        <rect x="0" y="0" width="50" height="200"/>
        <rect x="0" y="0" width="50" height="200" fill="url(#Gradient-3)"/>
    </g>

    <g id="Pipe2" class="mc mc-pipe" transform="translate(600, 550) rotate(90)">
        <rect x="0" y="0" width="50" height="200"/>
        <rect x="0" y="0" width="50" height="200" fill="url(#Gradient-3)"/>
    </g>

</svg>